<svg width="1951" height="787" viewBox="0 0 1951 787" fill="none" xmlns="http://www.w3.org/2000/svg">
<path d="M1923.83 39.3552C1957.48 89.7118 1957.95 157.168 1930.86 210.505C1902.78 265.755 1846.3 297.6 1784.7 295.752C1725.25 293.936 1665.02 261.937 1639.34 206.63C1615.33 154.892 1622.7 80.7572 1681.77 56.6731C1731.66 36.3427 1797.94 60.3785 1819.09 110.795C1840.25 161.211 1815.92 221.476 1773.15 252.452C1719.18 291.52 1648.24 273.251 1593.65 245.945C1527.42 212.969 1466.09 158.196 1388.79 154.995C1327.85 152.471 1267.85 182.355 1229.13 228.887C1209.59 252.067 1196.13 279.75 1189.97 309.428C1183.54 341.865 1188.99 380.244 1210.99 406.054C1235.45 434.771 1274.9 432.815 1302.03 408.691C1331.83 382.141 1338.71 340.384 1343.27 302.748C1351.94 230.875 1351.64 150.67 1311.77 87.3548C1276.41 31.3394 1208.45 -9.74493 1141.27 10.6018C1065.11 33.6747 1027.18 112.465 1013.98 185.08C1006.83 224.475 1004.73 264.699 1002.35 304.609C999.939 345.184 997.802 385.809 993.475 426.278C985.197 502.947 968.45 579.676 928.507 646.572C891.044 709.329 834.251 760.844 762.075 778.702C694.891 795.423 623.539 784.052 559.837 759.378C480.193 728.621 409.681 678.585 338.727 632.099L111.128 483.009L1.99891 411.513C-0.350349 409.975 1.76136 406.134 4.11017 407.644L228.982 554.939C302.132 602.869 374.409 652.571 449.111 698.052C515.624 738.525 587.752 773.533 666.331 780.726C701.13 783.914 736.618 781.666 770.298 771.864C806.853 760.931 840.341 741.574 868.071 715.351C989.522 602.084 989.725 425.428 999.972 272.169C1004.88 199.156 1013.24 120.659 1061.24 61.7224C1081.96 36.226 1109.49 15.2366 1141.31 5.9513C1170.24 -2.21164 1201.07 -0.463876 1228.87 10.9163C1289.36 34.9811 1328.73 91.8004 1343.48 153.562C1351.68 188.117 1353.28 223.946 1351.49 259.266C1349.64 295.347 1346.71 334.118 1333.87 368.143C1322.92 397.114 1300.58 424.229 1268.96 430.854C1240.71 436.757 1214.86 422.249 1200.11 398.475C1168.01 346.695 1185.13 279.923 1219.51 234.018C1253.62 188.505 1307.07 156.988 1363.82 151.321C1436.07 144.16 1497.96 185.555 1557.18 220.685C1613.26 253.972 1686.92 289.867 1752.07 259.757C1804.11 235.708 1837.44 169.368 1815.81 114.379C1794 58.7985 1714.03 34.9531 1665.65 70.6606C1607.65 113.437 1628.26 203.676 1673.81 246.746C1719.36 289.815 1791.49 303.414 1849.84 280.269C1910.56 256.144 1946.03 192.382 1945.86 128.63C1946.01 97.7227 1937.03 67.4704 1920.03 41.6753C1918.44 39.2942 1922.25 37.0984 1923.83 39.3552Z" fill="#FF4C0D"/>
</svg>
